<svg xmlns="http://www.w3.org/2000/svg" viewBox="0 0 32 32" id="delete">
  <path d="M5.42 12.63h.69v13.23c0 3.11 2.53 5.64 5.64 5.64h8.5c3.11 0 5.64-2.53 5.64-5.64V12.63h.69c1.28 0 2.32-1.04 2.32-2.32 0-3.11-2.53-5.64-5.64-5.64h-2.01v-.6c0-1.97-1.6-3.57-3.57-3.57h-3.36c-1.97 0-3.57 1.6-3.57 3.57v.6H8.74c-3.11 0-5.64 2.53-5.64 5.64 0 1.28 1.04 2.32 2.32 2.32zm7.81 12.21c0 .83-.67 1.5-1.5 1.5s-1.5-.67-1.5-1.5V16.3c0-.83.67-1.5 1.5-1.5s1.5.67 1.5 1.5v8.54zm4.27 0c0 .83-.67 1.5-1.5 1.5s-1.5-.67-1.5-1.5V16.3c0-.83.67-1.5 1.5-1.5s1.5.67 1.5 1.5v8.54zm4.27 0c0 .83-.67 1.5-1.5 1.5s-1.5-.67-1.5-1.5V16.3c0-.83.67-1.5 1.5-1.5s1.5.67 1.5 1.5v8.54zM13.75 4.07c0-.31.25-.57.57-.57h3.36c.32 0 .57.26.57.57v.6h-4.5v-.6zm-5.01 3.6h14.52c1.22 0 2.26.83 2.56 1.96H6.18c.3-1.13 1.34-1.96 2.56-1.96z"></path>
</svg>
